<?xml version="1.0" standalone="no"?>
<!DOCTYPE svg PUBLIC "-//W3C//DTD SVG 20010904//EN"
 "http://www.w3.org/TR/2001/REC-SVG-20010904/DTD/svg10.dtd">
<svg version="1.0" xmlns="http://www.w3.org/2000/svg"
 width="500.000000pt" height="500.000000pt" viewBox="0 0 500.000000 500.000000"
 preserveAspectRatio="xMidYMid meet">
<metadata>
Created by potrace 1.14, written by Peter Selinger 2001-2017
</metadata>
<g transform="translate(0.000000,500.000000) scale(0.100000,-0.100000)"
fill="#000000" stroke="none">
<path d="M1040 3426 l0 -1304 -31 -83 c-17 -46 -35 -97 -40 -114 -5 -16 -18
-49 -29 -72 -11 -24 -20 -48 -20 -55 0 -7 -7 -32 -16 -55 -15 -39 -20 -43 -50
-43 -18 0 -48 -6 -66 -14 -18 -8 -53 -22 -78 -32 -25 -10 -47 -21 -50 -24 -3
-3 -23 -14 -45 -25 -49 -24 -205 -178 -230 -225 -10 -19 -24 -40 -31 -48 -8
-7 -14 -19 -14 -27 0 -7 -14 -43 -30 -80 -30 -66 -30 -69 -30 -240 0 -170 1
-175 31 -257 18 -45 37 -90 43 -98 7 -8 18 -28 26 -45 15 -30 190 -215 203
-215 4 0 20 -9 35 -20 15 -11 65 -35 112 -53 l85 -33 1958 4 1957 4 0 1508 0
1507 -165 164 c-90 90 -165 170 -165 177 0 6 -5 12 -12 12 -15 0 -148 132
-148 148 0 6 -5 12 -12 12 -14 0 -148 134 -148 149 0 6 -4 11 -9 11 -14 0
-161 145 -161 158 0 7 -4 12 -9 12 -14 0 -151 135 -151 148 0 7 -4 12 -9 12
-11 0 -101 88 -101 99 0 5 -9 11 -21 14 -11 3 -23 15 -26 26 -3 12 -9 21 -13
21 -10 0 -100 88 -100 99 0 4 -11 13 -25 19 -14 6 -25 17 -25 24 -1 7 -18 27
-39 43 -21 17 -46 40 -55 53 -16 21 -16 22 4 22 11 0 20 4 20 10 0 6 -413 10
-1160 10 l-1160 0 0 -1304z"/>
</g>
</svg>
